<mxfile host="Electron" agent="Mozilla/5.0 (Windows NT 10.0; Win64; x64) AppleWebKit/537.36 (KHTML, like Gecko) draw.io/28.1.2 Chrome/138.0.7204.243 Electron/37.4.0 Safari/537.36" version="28.1.2" pages="2">
  <diagram name="Page-1" id="mvDb_Kd92rDcgLwUR48M">
    <mxGraphModel dx="1028" dy="611" grid="0" gridSize="10" guides="1" tooltips="1" connect="1" arrows="1" fold="1" page="1" pageScale="1" pageWidth="1200" pageHeight="1600" math="0" shadow="0">
      <root>
        <mxCell id="0" />
        <mxCell id="1" parent="0" />
        <mxCell id="3Rs-krfUGecK4LdEfJeo-1" value="" style="rounded=0;whiteSpace=wrap;html=1;fillColor=none;" parent="1" vertex="1">
          <mxGeometry x="13.74" y="142.5" width="174" height="487.5" as="geometry" />
        </mxCell>
        <mxCell id="3Rs-krfUGecK4LdEfJeo-2" value="sources" style="rounded=0;whiteSpace=wrap;html=1;fontSize=17;strokeColor=none;fillColor=default;" parent="1" vertex="1">
          <mxGeometry x="56.75" y="110" width="89" height="36" as="geometry" />
        </mxCell>
        <mxCell id="3Rs-krfUGecK4LdEfJeo-4" value="" style="rounded=0;whiteSpace=wrap;html=1;fillColor=none;" parent="1" vertex="1">
          <mxGeometry x="247" y="142.5" width="590" height="488.5" as="geometry" />
        </mxCell>
        <mxCell id="3Rs-krfUGecK4LdEfJeo-5" value="Data warehouse" style="rounded=0;whiteSpace=wrap;html=1;fontSize=17;strokeColor=none;fillColor=default;" parent="1" vertex="1">
          <mxGeometry x="465" y="110" width="160" height="40" as="geometry" />
        </mxCell>
        <mxCell id="3Rs-krfUGecK4LdEfJeo-7" value="" style="rounded=0;whiteSpace=wrap;html=1;fillColor=none;" parent="1" vertex="1">
          <mxGeometry x="914" y="142.5" width="120" height="487.5" as="geometry" />
        </mxCell>
        <mxCell id="3Rs-krfUGecK4LdEfJeo-8" value="consume" style="rounded=0;whiteSpace=wrap;html=1;fontSize=17;strokeColor=none;fillColor=default;" parent="1" vertex="1">
          <mxGeometry x="941.25" y="110" width="77.5" height="40" as="geometry" />
        </mxCell>
        <mxCell id="3Rs-krfUGecK4LdEfJeo-9" value="bronze layers" style="rounded=1;whiteSpace=wrap;fillColor=#d80073;strokeColor=#A50040;fontColor=#ffffff;gradientColor=default;fontSize=19;labelBackgroundColor=none;labelBorderColor=none;textShadow=0;html=1;fontStyle=0;fontFamily=Times New Roman;" parent="1" vertex="1">
          <mxGeometry x="261.75" y="154" width="120" height="30" as="geometry" />
        </mxCell>
        <mxCell id="3Rs-krfUGecK4LdEfJeo-10" value="" style="rounded=1;whiteSpace=wrap;fontSize=13;labelBackgroundColor=none;labelBorderColor=none;textShadow=0;html=1;fillColor=none;" parent="1" vertex="1">
          <mxGeometry x="256.5" y="197" width="130.5" height="419" as="geometry" />
        </mxCell>
        <mxCell id="3Rs-krfUGecK4LdEfJeo-11" value="silver layer" style="rounded=1;whiteSpace=wrap;fillColor=#d80073;strokeColor=#A50040;fontColor=#ffffff;gradientColor=default;fontSize=19;labelBackgroundColor=none;labelBorderColor=none;textShadow=0;html=1;fontStyle=0;fontFamily=Times New Roman;" parent="1" vertex="1">
          <mxGeometry x="485" y="154" width="120" height="30" as="geometry" />
        </mxCell>
        <mxCell id="3Rs-krfUGecK4LdEfJeo-12" value="" style="rounded=1;whiteSpace=wrap;fontSize=13;labelBackgroundColor=none;labelBorderColor=none;textShadow=0;html=1;fillColor=none;" parent="1" vertex="1">
          <mxGeometry x="477" y="195.5" width="133" height="422.5" as="geometry" />
        </mxCell>
        <mxCell id="3Rs-krfUGecK4LdEfJeo-13" value="gold layer" style="rounded=1;whiteSpace=wrap;fillColor=#d80073;strokeColor=#A50040;fontColor=#ffffff;gradientColor=default;fontSize=19;labelBackgroundColor=none;labelBorderColor=none;textShadow=0;html=1;fontStyle=0;fontFamily=Times New Roman;" parent="1" vertex="1">
          <mxGeometry x="700" y="154" width="120" height="30" as="geometry" />
        </mxCell>
        <mxCell id="3Rs-krfUGecK4LdEfJeo-14" value="" style="rounded=1;whiteSpace=wrap;fontSize=13;labelBackgroundColor=none;labelBorderColor=none;textShadow=0;html=1;fillColor=none;" parent="1" vertex="1">
          <mxGeometry x="695" y="190" width="130" height="428" as="geometry" />
        </mxCell>
        <mxCell id="3Rs-krfUGecK4LdEfJeo-37" value="" style="image;aspect=fixed;html=1;points=[];align=center;fontSize=12;image=img/lib/azure2/general/Folder_Blank.svg;" parent="1" vertex="1">
          <mxGeometry x="76.72000000000003" y="240" width="48.05" height="39" as="geometry" />
        </mxCell>
        <mxCell id="3Rs-krfUGecK4LdEfJeo-38" value="" style="shape=image;editableCssRules=.*;verticalLabelPosition=bottom;labelBackgroundColor=default;verticalAlign=top;aspect=fixed;imageAspect=0;image=data:image/svg+xml,PHN2ZyB4bWxucz0iaHR0cDovL3d3dy53My5vcmcvMjAwMC9zdmciIHZpZXdCb3g9Ii0wLjUgLTAuNSAyNy45OTkgMjgiIGhlaWdodD0iMjgiIHdpZHRoPSIyNy45OTkiPiYjeGE7CSAgPHN0eWxlIHR5cGU9InRleHQvY3NzIj4uc3QwIHsgc3RvcC1jb2xvcjogcmdiKDM1LCAxNDksIDI1NSk7IH0gLnN0MSB7IHN0b3AtY29sb3I6IHJnYigwLCA4NywgMjEwKTsgfSA8L3N0eWxlPiYjeGE7CTxkZWZzPiYjeGE7CQk8bGluZWFyR3JhZGllbnQgZ3JhZGllbnRVbml0cz0idXNlclNwYWNlT25Vc2UiIHkyPSIyNS4zMDgiIHgyPSIyMy40NTQiIHkxPSIzLjQ3NCIgeDE9IjIuMDM5IiBpZD0iQSI+JiN4YTsJCQk8c3RvcCBjbGFzcz0ic3QwIi8+JiN4YTsJCQk8c3RvcCBjbGFzcz0ic3QxIiBvZmZzZXQ9IjEiLz4mI3hhOwkJPC9saW5lYXJHcmFkaWVudD4mI3hhOwk8L2RlZnM+JiN4YTsJPHBhdGggZmlsbD0idXJsKCNBKSIgZD0iTTI3LjA2MS0uMDYxYy4yOTMuMjkzLjQzOC42MDMuNDM4LjkzMXYyNS4yMDRhMS40NiAxLjQ2IDAgMCAxLS4zODQuOTg3Yy0uMjU2LjI5MS0uNjAzLjQzOC0xLjA0MS40MzhINi41MTNjLS40MzggMC0uNzg1LS4xNDctMS4wNC0uNDM4YTEuNDYgMS40NiAwIDAgMS0uMzg2LS45ODdWOS4zMDljMC0uMzY2LjE0Ny0uNjk0LjQzOC0uOTg3bDguMzg0LTguMzgzYTEuMjUgMS4yNSAwIDAgMSAuOTg3LS40MzhoMTEuMTc2Yy40MDMgMCAuNzMxLjE0Ni45ODcuNDM4em0tMi4zNTcgMi4zNTZoLTkuMjU5bC0uNTQ5LjU0N3YzLjY3MWEyLjY5IDIuNjkgMCAwIDEtLjgyMSAxLjk3MyAyLjY5IDIuNjkgMCAwIDEtMS45NzMuODIySDguNDMxbC0uNTQ5LjU0N3YxNC44NDloMTYuODIxek0xMC42NzcgMTQuODk3YzAtLjQwMi4xMjgtLjcyOS4zODQtLjk4NS4yNTYtLjI5My42MDMtLjQzOCAxLjA0Mi0uNDM4aDguMzgzYy40MDMgMCAuNzMxLjE0Ni45ODcuNDM4LjI5MS4yNTYuNDM4LjU4NC40MzguOTg1cy0uMTQ3LjczMS0uNDM4Ljk4N2MtLjEzLjEyOC0uMjg0LjIyOC0uNDU0LjI5NHMtLjM1MS4wOTctLjUzMy4wOWgtOC4zODNjLS45NSAwLTEuNDI1LS40NTYtMS40MjUtMS4zNzF6bTkuODA4IDQuMjE5Yy40MDMgMCAuNzMxLjE0Ny45ODcuNDM4LjEzOC4xMTMuMjQ5LjI1NS4zMjUuNDE3YTEuMTkgMS4xOSAwIDAgMSAuMTEzLjUxNiAxLjM2IDEuMzYgMCAwIDEtLjQzOC45ODUgMS4yNSAxLjI1IDAgMCAxLS45ODcuNDM4aC04LjM4M2MtLjQzOCAwLS43ODYtLjE0NS0xLjA0MS0uNDM4YTEuNDYgMS40NiAwIDAgMS0uMzg0LS45ODUgMS4yNiAxLjI2IDAgMCAxIC4zODQtLjkzMWMuMjU2LS4yOTMuNjAzLS40MzggMS4wNDEtLjQzOHpNOC44Ny0uMDYxYy4yOTMuMjkzLjQzOC42MjEuNDM4Ljk4NyAwIC4zMjgtLjE0Ni42MzgtLjQzOC45MjlMMi4yOTUgOC40M3YxNy42NDRhMS40NiAxLjQ2IDAgMCAxLS4zODQuOTg3Yy0uMjU2LjI5MS0uNjAxLjQzOC0xLjA0LjQzOGExLjI1IDEuMjUgMCAwIDEtLjU0My0uMTA3Yy0uMTcxLS4wNzYtLjMyMi0uMTg5LS40NDQtLjMzMWExLjQ2IDEuNDYgMCAwIDEtLjM4NC0uOTg3VjcuODgzYzAtLjQwMi4xNDctLjcyOS40MzgtLjk4NUw2Ljg5Ny0uMDYxYTEuMzYgMS4zNiAwIDAgMSAuOTg3LS40MzhjLjM2NSAwIC42OTMuMTQ2Ljk4NS40Mzh6Ii8+JiN4YTs8L3N2Zz4=;imageBackground=default;" parent="1" vertex="1">
          <mxGeometry x="110.75" y="256" width="23" height="23" as="geometry" />
        </mxCell>
        <mxCell id="3Rs-krfUGecK4LdEfJeo-39" value="" style="image;aspect=fixed;html=1;points=[];align=center;fontSize=12;image=img/lib/azure2/general/Folder_Blank.svg;" parent="1" vertex="1">
          <mxGeometry x="76.72000000000003" y="333" width="48.05" height="39" as="geometry" />
        </mxCell>
        <mxCell id="3Rs-krfUGecK4LdEfJeo-40" value="" style="shape=image;editableCssRules=.*;verticalLabelPosition=bottom;labelBackgroundColor=default;verticalAlign=top;aspect=fixed;imageAspect=0;image=data:image/svg+xml,PHN2ZyB4bWxucz0iaHR0cDovL3d3dy53My5vcmcvMjAwMC9zdmciIHZpZXdCb3g9Ii0wLjUgLTAuNSAyNy45OTkgMjgiIGhlaWdodD0iMjgiIHdpZHRoPSIyNy45OTkiPiYjeGE7CSAgPHN0eWxlIHR5cGU9InRleHQvY3NzIj4uc3QwIHsgc3RvcC1jb2xvcjogcmdiKDM1LCAxNDksIDI1NSk7IH0gLnN0MSB7IHN0b3AtY29sb3I6IHJnYigwLCA4NywgMjEwKTsgfSA8L3N0eWxlPiYjeGE7CTxkZWZzPiYjeGE7CQk8bGluZWFyR3JhZGllbnQgZ3JhZGllbnRVbml0cz0idXNlclNwYWNlT25Vc2UiIHkyPSIyNS4zMDgiIHgyPSIyMy40NTQiIHkxPSIzLjQ3NCIgeDE9IjIuMDM5IiBpZD0iQSI+JiN4YTsJCQk8c3RvcCBjbGFzcz0ic3QwIi8+JiN4YTsJCQk8c3RvcCBjbGFzcz0ic3QxIiBvZmZzZXQ9IjEiLz4mI3hhOwkJPC9saW5lYXJHcmFkaWVudD4mI3hhOwk8L2RlZnM+JiN4YTsJPHBhdGggZmlsbD0idXJsKCNBKSIgZD0iTTI3LjA2MS0uMDYxYy4yOTMuMjkzLjQzOC42MDMuNDM4LjkzMXYyNS4yMDRhMS40NiAxLjQ2IDAgMCAxLS4zODQuOTg3Yy0uMjU2LjI5MS0uNjAzLjQzOC0xLjA0MS40MzhINi41MTNjLS40MzggMC0uNzg1LS4xNDctMS4wNC0uNDM4YTEuNDYgMS40NiAwIDAgMS0uMzg2LS45ODdWOS4zMDljMC0uMzY2LjE0Ny0uNjk0LjQzOC0uOTg3bDguMzg0LTguMzgzYTEuMjUgMS4yNSAwIDAgMSAuOTg3LS40MzhoMTEuMTc2Yy40MDMgMCAuNzMxLjE0Ni45ODcuNDM4em0tMi4zNTcgMi4zNTZoLTkuMjU5bC0uNTQ5LjU0N3YzLjY3MWEyLjY5IDIuNjkgMCAwIDEtLjgyMSAxLjk3MyAyLjY5IDIuNjkgMCAwIDEtMS45NzMuODIySDguNDMxbC0uNTQ5LjU0N3YxNC44NDloMTYuODIxek0xMC42NzcgMTQuODk3YzAtLjQwMi4xMjgtLjcyOS4zODQtLjk4NS4yNTYtLjI5My42MDMtLjQzOCAxLjA0Mi0uNDM4aDguMzgzYy40MDMgMCAuNzMxLjE0Ni45ODcuNDM4LjI5MS4yNTYuNDM4LjU4NC40MzguOTg1cy0uMTQ3LjczMS0uNDM4Ljk4N2MtLjEzLjEyOC0uMjg0LjIyOC0uNDU0LjI5NHMtLjM1MS4wOTctLjUzMy4wOWgtOC4zODNjLS45NSAwLTEuNDI1LS40NTYtMS40MjUtMS4zNzF6bTkuODA4IDQuMjE5Yy40MDMgMCAuNzMxLjE0Ny45ODcuNDM4LjEzOC4xMTMuMjQ5LjI1NS4zMjUuNDE3YTEuMTkgMS4xOSAwIDAgMSAuMTEzLjUxNiAxLjM2IDEuMzYgMCAwIDEtLjQzOC45ODUgMS4yNSAxLjI1IDAgMCAxLS45ODcuNDM4aC04LjM4M2MtLjQzOCAwLS43ODYtLjE0NS0xLjA0MS0uNDM4YTEuNDYgMS40NiAwIDAgMS0uMzg0LS45ODUgMS4yNiAxLjI2IDAgMCAxIC4zODQtLjkzMWMuMjU2LS4yOTMuNjAzLS40MzggMS4wNDEtLjQzOHpNOC44Ny0uMDYxYy4yOTMuMjkzLjQzOC42MjEuNDM4Ljk4NyAwIC4zMjgtLjE0Ni42MzgtLjQzOC45MjlMMi4yOTUgOC40M3YxNy42NDRhMS40NiAxLjQ2IDAgMCAxLS4zODQuOTg3Yy0uMjU2LjI5MS0uNjAxLjQzOC0xLjA0LjQzOGExLjI1IDEuMjUgMCAwIDEtLjU0My0uMTA3Yy0uMTcxLS4wNzYtLjMyMi0uMTg5LS40NDQtLjMzMWExLjQ2IDEuNDYgMCAwIDEtLjM4NC0uOTg3VjcuODgzYzAtLjQwMi4xNDctLjcyOS40MzgtLjk4NUw2Ljg5Ny0uMDYxYTEuMzYgMS4zNiAwIDAgMSAuOTg3LS40MzhjLjM2NSAwIC42OTMuMTQ2Ljk4NS40Mzh6Ii8+JiN4YTs8L3N2Zz4=;imageBackground=default;strokeWidth=2;" parent="1" vertex="1">
          <mxGeometry x="110.75" y="349" width="23" height="23" as="geometry" />
        </mxCell>
        <mxCell id="3Rs-krfUGecK4LdEfJeo-41" value="" style="shape=link;html=1;rounded=0;" parent="1" edge="1">
          <mxGeometry width="100" relative="1" as="geometry">
            <mxPoint x="14.75" y="396" as="sourcePoint" />
            <mxPoint x="187.75" y="396" as="targetPoint" />
          </mxGeometry>
        </mxCell>
        <mxCell id="3Rs-krfUGecK4LdEfJeo-42" value="&lt;b&gt;object type/&lt;/b&gt; is a csv file&lt;div&gt;&lt;br&gt;&lt;/div&gt;&lt;div&gt;&lt;b&gt;interface&lt;/b&gt;/files in folder&lt;/div&gt;" style="text;html=1;align=center;verticalAlign=middle;whiteSpace=wrap;rounded=0;fontSize=14;fontStyle=0" parent="1" vertex="1">
          <mxGeometry x="23.20999999999998" y="414" width="155.07" height="33" as="geometry" />
        </mxCell>
        <mxCell id="3Rs-krfUGecK4LdEfJeo-45" value="" style="html=1;verticalLabelPosition=bottom;align=center;labelBackgroundColor=#ffffff;verticalAlign=top;strokeWidth=2;strokeColor=#0080F0;shadow=0;dashed=0;shape=mxgraph.ios7.icons.data;" parent="1" vertex="1">
          <mxGeometry x="301.75" y="261" width="40" height="47" as="geometry" />
        </mxCell>
        <mxCell id="3Rs-krfUGecK4LdEfJeo-46" value="" style="html=1;verticalLabelPosition=bottom;align=center;labelBackgroundColor=#ffffff;verticalAlign=top;strokeWidth=2;strokeColor=#0080F0;shadow=0;dashed=0;shape=mxgraph.ios7.icons.data;" parent="1" vertex="1">
          <mxGeometry x="525" y="261" width="40" height="47" as="geometry" />
        </mxCell>
        <mxCell id="3Rs-krfUGecK4LdEfJeo-47" value="" style="html=1;verticalLabelPosition=bottom;align=center;labelBackgroundColor=#ffffff;verticalAlign=top;strokeWidth=2;strokeColor=#0080F0;shadow=0;dashed=0;shape=mxgraph.ios7.icons.data;" parent="1" vertex="1">
          <mxGeometry x="737.5" y="261" width="40" height="47" as="geometry" />
        </mxCell>
        <mxCell id="3Rs-krfUGecK4LdEfJeo-48" style="edgeStyle=orthogonalEdgeStyle;rounded=0;orthogonalLoop=1;jettySize=auto;html=1;exitX=0.5;exitY=1;exitDx=0;exitDy=0;" parent="1" source="3Rs-krfUGecK4LdEfJeo-13" target="3Rs-krfUGecK4LdEfJeo-13" edge="1">
          <mxGeometry relative="1" as="geometry" />
        </mxCell>
        <mxCell id="3Rs-krfUGecK4LdEfJeo-50" value="" style="shape=singleArrow;whiteSpace=wrap;html=1;" parent="1" vertex="1">
          <mxGeometry x="376" y="335.75" width="112" height="49.5" as="geometry" />
        </mxCell>
        <mxCell id="3Rs-krfUGecK4LdEfJeo-51" value="" style="shape=singleArrow;whiteSpace=wrap;html=1;" parent="1" vertex="1">
          <mxGeometry x="600" y="337.25" width="107" height="49.5" as="geometry" />
        </mxCell>
        <mxCell id="3Rs-krfUGecK4LdEfJeo-52" value="Row data&lt;div&gt;&lt;br&gt;&lt;/div&gt;" style="text;html=1;align=center;verticalAlign=middle;whiteSpace=wrap;rounded=0;spacing=4;spacingTop=1;spacingBottom=0;fontSize=12.5;" parent="1" vertex="1">
          <mxGeometry x="290.75" y="328" width="62" height="35" as="geometry" />
        </mxCell>
        <mxCell id="3Rs-krfUGecK4LdEfJeo-54" value="&lt;font style=&quot;font-size: 12.5px;&quot;&gt;bussiness ready data&lt;/font&gt;" style="text;html=1;align=center;verticalAlign=middle;whiteSpace=wrap;rounded=0;spacing=4;spacingTop=1;spacingBottom=0;fontSize=13;" parent="1" vertex="1">
          <mxGeometry x="692.5" y="326.5" width="135" height="35" as="geometry" />
        </mxCell>
        <mxCell id="3Rs-krfUGecK4LdEfJeo-55" value="Cleaned,standardalized data" style="text;html=1;align=center;verticalAlign=middle;whiteSpace=wrap;rounded=0;spacing=4;spacingTop=1;spacingBottom=0;fontSize=12.5;" parent="1" vertex="1">
          <mxGeometry x="476" y="326.5" width="135" height="35" as="geometry" />
        </mxCell>
        <mxCell id="3Rs-krfUGecK4LdEfJeo-60" value="" style="shape=link;html=1;rounded=0;" parent="1" edge="1">
          <mxGeometry width="100" relative="1" as="geometry">
            <mxPoint x="271.75" y="363" as="sourcePoint" />
            <mxPoint x="371.75" y="363" as="targetPoint" />
          </mxGeometry>
        </mxCell>
        <mxCell id="3Rs-krfUGecK4LdEfJeo-61" value="" style="shape=link;html=1;rounded=0;" parent="1" edge="1">
          <mxGeometry width="100" relative="1" as="geometry">
            <mxPoint x="493.5" y="363" as="sourcePoint" />
            <mxPoint x="593.5" y="363" as="targetPoint" />
          </mxGeometry>
        </mxCell>
        <mxCell id="3Rs-krfUGecK4LdEfJeo-63" value="" style="shape=link;html=1;rounded=0;" parent="1" edge="1">
          <mxGeometry width="100" relative="1" as="geometry">
            <mxPoint x="712" y="361.41" as="sourcePoint" />
            <mxPoint x="812" y="361.41" as="targetPoint" />
          </mxGeometry>
        </mxCell>
        <mxCell id="azPUpTtqAbj_9m2jaYkP-2" value="&lt;b&gt;object type&lt;/b&gt;:tables" style="text;html=1;align=center;verticalAlign=middle;whiteSpace=wrap;rounded=0;" parent="1" vertex="1">
          <mxGeometry x="266" y="376" width="110" height="30" as="geometry" />
        </mxCell>
        <mxCell id="azPUpTtqAbj_9m2jaYkP-3" value="&lt;b&gt;load:&lt;/b&gt;&lt;div&gt;*Batch processing&lt;/div&gt;&lt;div&gt;*Full load&lt;/div&gt;&lt;div&gt;*Truncate &amp;amp; Insert&lt;/div&gt;&lt;div&gt;&lt;br&gt;&lt;/div&gt;&lt;div&gt;&lt;br&gt;&lt;/div&gt;" style="text;html=1;align=left;verticalAlign=middle;whiteSpace=wrap;rounded=0;" parent="1" vertex="1">
          <mxGeometry x="266" y="400" width="117.25" height="98" as="geometry" />
        </mxCell>
        <mxCell id="azPUpTtqAbj_9m2jaYkP-4" value="no &lt;b&gt;transformation&lt;/b&gt;" style="text;html=1;align=center;verticalAlign=middle;whiteSpace=wrap;rounded=0;" parent="1" vertex="1">
          <mxGeometry x="256.5" y="474" width="110" height="30" as="geometry" />
        </mxCell>
        <mxCell id="azPUpTtqAbj_9m2jaYkP-5" value="&lt;b&gt;Data Model:&lt;/b&gt; None as-is" style="text;html=1;align=center;verticalAlign=middle;whiteSpace=wrap;rounded=0;fontSize=11;" parent="1" vertex="1">
          <mxGeometry x="254.25" y="511" width="132.75" height="26" as="geometry" />
        </mxCell>
        <mxCell id="azPUpTtqAbj_9m2jaYkP-7" value="&lt;b&gt;object type&lt;/b&gt;:tables" style="text;html=1;align=center;verticalAlign=middle;whiteSpace=wrap;rounded=0;" parent="1" vertex="1">
          <mxGeometry x="492" y="376" width="110" height="30" as="geometry" />
        </mxCell>
        <mxCell id="azPUpTtqAbj_9m2jaYkP-8" value="&lt;b&gt;load:&lt;/b&gt;&lt;div&gt;*Batch Processing&lt;/div&gt;&lt;div&gt;*Full load&lt;/div&gt;&lt;div&gt;*Truncate &amp;amp; Insert&lt;/div&gt;" style="text;html=1;align=left;verticalAlign=middle;whiteSpace=wrap;rounded=0;" parent="1" vertex="1">
          <mxGeometry x="483.37" y="406" width="117.25" height="64" as="geometry" />
        </mxCell>
        <mxCell id="azPUpTtqAbj_9m2jaYkP-9" value="&lt;b&gt;Transformation:&lt;/b&gt;&lt;div&gt;&lt;b&gt;*&lt;/b&gt;Data Cleaning&lt;/div&gt;&lt;div&gt;*Data Standrization&lt;/div&gt;&lt;div&gt;*Data *Normalization&lt;/div&gt;&lt;div&gt;*Derived Columns&lt;/div&gt;&lt;div&gt;*Data Enrichment&lt;br&gt;&lt;div&gt;&lt;br&gt;&lt;/div&gt;&lt;/div&gt;" style="text;html=1;align=left;verticalAlign=middle;whiteSpace=wrap;rounded=0;" parent="1" vertex="1">
          <mxGeometry x="483.37" y="532.5" width="101" height="30" as="geometry" />
        </mxCell>
        <mxCell id="azPUpTtqAbj_9m2jaYkP-12" value="&lt;b&gt;Transformation:&lt;/b&gt;&lt;br&gt;&lt;div&gt;*Data Intergrations&lt;/div&gt;&lt;div&gt;*Aggregations&lt;/div&gt;&lt;div&gt;*Bussiness Logic&lt;/div&gt;" style="text;html=1;align=left;verticalAlign=middle;whiteSpace=wrap;rounded=0;" parent="1" vertex="1">
          <mxGeometry x="707" y="450" width="117.25" height="64" as="geometry" />
        </mxCell>
        <mxCell id="azPUpTtqAbj_9m2jaYkP-13" value="&lt;b&gt;object type&lt;/b&gt;:Views" style="text;html=1;align=center;verticalAlign=middle;whiteSpace=wrap;rounded=0;" parent="1" vertex="1">
          <mxGeometry x="702.5" y="376" width="110" height="30" as="geometry" />
        </mxCell>
        <mxCell id="azPUpTtqAbj_9m2jaYkP-14" value="No &lt;b&gt;Load&lt;/b&gt;" style="text;html=1;align=center;verticalAlign=middle;whiteSpace=wrap;rounded=0;" parent="1" vertex="1">
          <mxGeometry x="702.5" y="406" width="110" height="30" as="geometry" />
        </mxCell>
        <mxCell id="azPUpTtqAbj_9m2jaYkP-15" value="&lt;div&gt;&lt;b&gt;Data Model:&lt;/b&gt;&lt;/div&gt;&lt;div&gt;*Data Intergrations&lt;/div&gt;&lt;div&gt;*Aggregations&lt;/div&gt;&lt;div&gt;*Bussiness Logic&lt;/div&gt;" style="text;html=1;align=left;verticalAlign=middle;whiteSpace=wrap;rounded=0;" parent="1" vertex="1">
          <mxGeometry x="702.75" y="528" width="117.25" height="64" as="geometry" />
        </mxCell>
        <mxCell id="azPUpTtqAbj_9m2jaYkP-16" value="" style="image;aspect=fixed;html=1;points=[];align=center;fontSize=9;image=img/lib/azure2/power_platform/PowerBI.svg;" parent="1" vertex="1">
          <mxGeometry x="951.5" y="180" width="45" height="60" as="geometry" />
        </mxCell>
        <mxCell id="azPUpTtqAbj_9m2jaYkP-18" value="" style="sketch=0;html=1;aspect=fixed;strokeColor=#6F0000;shadow=0;fillColor=#000066;verticalAlign=top;labelPosition=center;verticalLabelPosition=bottom;shape=mxgraph.gcp2.big_query;fontColor=#ffffff;" parent="1" vertex="1">
          <mxGeometry x="944.3" y="291" width="59.4" height="60" as="geometry" />
        </mxCell>
        <mxCell id="azPUpTtqAbj_9m2jaYkP-20" value="Machine&amp;amp;Deep&amp;nbsp;&lt;div&gt;Learning&lt;/div&gt;" style="sketch=0;outlineConnect=0;fontColor=#232F3E;gradientColor=none;strokeColor=#ffffff;fillColor=#232F3E;dashed=0;verticalLabelPosition=middle;verticalAlign=bottom;align=center;html=1;whiteSpace=wrap;fontSize=10;fontStyle=1;spacing=3;shape=mxgraph.aws4.productIcon;prIcon=mxgraph.aws4.deep_learning_amis;" parent="1" vertex="1">
          <mxGeometry x="934" y="401" width="80" height="110" as="geometry" />
        </mxCell>
        <mxCell id="azPUpTtqAbj_9m2jaYkP-21" value="Query&amp;amp;Data&lt;div&gt;Analytics&lt;/div&gt;" style="text;html=1;align=center;verticalAlign=middle;whiteSpace=wrap;rounded=0;" parent="1" vertex="1">
          <mxGeometry x="935.5" y="355.25" width="77" height="30" as="geometry" />
        </mxCell>
        <mxCell id="azPUpTtqAbj_9m2jaYkP-22" value="Data Visualization&lt;div&gt;&amp;amp; Dashboards&lt;/div&gt;" style="text;html=1;align=center;verticalAlign=middle;whiteSpace=wrap;rounded=0;" parent="1" vertex="1">
          <mxGeometry x="923.35" y="244.5" width="101.3" height="30" as="geometry" />
        </mxCell>
        <mxCell id="azPUpTtqAbj_9m2jaYkP-23" value="" style="shape=singleArrow;whiteSpace=wrap;html=1;" parent="1" vertex="1">
          <mxGeometry x="157" y="337.25" width="112" height="49.5" as="geometry" />
        </mxCell>
        <mxCell id="azPUpTtqAbj_9m2jaYkP-24" value="" style="shape=singleArrow;whiteSpace=wrap;html=1;" parent="1" vertex="1">
          <mxGeometry x="816.35" y="335.75" width="107" height="49.5" as="geometry" />
        </mxCell>
        <mxCell id="azPUpTtqAbj_9m2jaYkP-26" value="" style="shape=image;verticalLabelPosition=bottom;labelBackgroundColor=default;verticalAlign=top;aspect=fixed;imageAspect=0;image=data:image/png,iVBORw0KGgoAAAANSUhEUgAAASwAAAClCAYAAADmtcDRAAAgAElEQVR4nO3dd1gT5x8A8O9dLjuEEEKAgIyAiAxFRFAERbS4rYpbq61at3XVXSdaq627aq277oFKbVXcIi5UxIXsvQkBQgiZd78/NPxAAa1arfp+nifPY/OOe+9svr539w4ABEEQBEEQBEEQBEEQBEEQBEEQBEEQBEEQBEEQBEEQBEEQBEEQBEEQBEEQBEEQBEEQBEEQBEEQBEEQBEEQBEEQBEEQBEEQBEEQBEEQBHlfsA/dgE9NakaOlU6v76RWawIFpib3HRpJfvvQbUKQTwXxoRvwKSgskhHFpeWdVCp1nzJFhYjJYNw0NeFtqlJrxhYWl3AsLcxVH7qNCPIpQAHrLSSnZwsqVaoByRk5gxl0upzP4+wXmJqcthKL1AAAT5PTWRiOSwHg8QduKoJ8ElDAegOxDxNcNDrt+JSMnG4sBj1BIODPbeHucuvFfBgGeTqdzhVQwEKQdwIFrH/gcWKaT2ZO/syMnPxOPC77hlhk9k1LT9cb9eXncbn3lUrVlwBw7D02E0E+WShgvYZ7jxKc8wtlK2IfJ/YTmppEOzay7tjC0zXuVeU4bOatYlnJSmVlpRWPyy14H21FkE8ZekvYgMSUDFZmbuHU3MLiBRRJccyFpgl0gkijKIrksFlFTDqRzOGwEths1mMCo+U4OdqqX6wj9tHTdJFQsNXOxvqnD3EOCPIpQQGrHncfPO2WmpW7pEhW6uMitTvWSCLen18o+0ZganKCIim9okIZqNHpbOkEIcYAxDQarmUyGAU0Gp7EZNDTCYLIYzGZSWqNZoZWq23d2NGuCY/HVXzo80KQjxm6JazD7ftPRkbHxe8AnR58W3ps8G/hPgUA4ElyhjIhKe1w08aOX/o0b7rPmP9JYqqEAnDR6fQeFEl6anX69mqN1rZSpeIQNEKv1emsSssrJgHAjx/spBAE+TRd+H7u1bU/bqDCr965+mLag6SMcYf+PE+lpGf3elU9OXmFkscJKeF34x5XPXySlK/T64X/TosR5POAf+gG/Be5eLgul+7bpjXdu4O4u3Bx8L2w5QJjWnMXh98cHRqtuxefHPE4MbVfXeVz84vwpNTMYfmFsqssJvOxjcSyv1qjsZKVlE54f2eBIJ8e9AyrHnnh4X0fTp4SDgw6sCwt03CBWTzbrtE1gsOJMWnaNCnD2W2vHKO1a9rUeYSnRHzAWC41Mze4SCb/WUdS3tZWFksbN7JeBAAQn5h6W683uDo7NnLicNiyD3dmCPLxQgGrAY/nzOmdHx5+2CIw8LihrFylSknuQWk1Ylyn19IdHAoqTIV2NKkUGlmKRjHs7OOKnV0nl2r1w03YrCtCMExs7OWZYKyrSKEMycnMiRSbC1bZSqxmf8jzQpCPFQpYr5D/55+9Excs3GE7aNBg57lzziXOmuljUCi+VN68+R2DxczRFxe7UAAExmAAyeUCbi0BE6HZAZw03GZYWmfQLcUJZJUqx3bRUlVyWlaEms4IkdpaNuViWMaHPjcE+diggPUa0tavH5Sxdu1B53nzvrIbM2YfAMDT0aNPCQIDFpGVSoXq4SNfsrzMDyoUHoaCAmdSVWkHBj3gOA1oHLYeZ7FlNDo9CXNzJ1ROjf359g4n2cWF86kSWQ7O56vMv5um/9DniCAfAxSwXlPGxo0Dsjdv2isZMnSN04IFc3M2rJ+qSkxo6bJpy1c18xX8uoGDMxlCUFWxdDnZXlU3r6/HCToBFIlj6io9VFQISZ2WgbE5gDGZSpzJKgI2W4YLBGm4ickDurRxPEWRCQwn5xSzIcPID3W+CPJfhALWP1AQHt4jcfz4Uw5zZo8Xde12JGn0yAdO6zf68X188l7MK9u+tZvi+LEFggGDluNMFl51+2ZPTpu2kw1lZQ6UssJZn53loc/JbmuQyz1IRZmdQVmJk3o9UACAcbhAs7F9jItEd+m2dtcZLk1iAMOSLL7+5qWR9AjyOUEB6x9KX768X8G+vUedf/zRr3DnjpXCrt0iJBMmrjOml/0ZISo7dmSTNiU52Kxf/28tps88WRl9TSJf9eN5/tcj25r27V9Wsz75r+sIUlkpoZQVLgZFeTO9QuGpLypy06Rn+BqqVEARBFB0BtAsrdJo5qJbDAeH8xzvlhfEQ4flvP+zR5APCwWsN5C5auXC0rNnB5u2afOXJjmpteuRY4EAACX79wUUb9pwkMbjKazmzu9j0qFjkrFMTt8ejzgdv1ggnDjlZEN1Ky+d5yvCjy3QpKb2oOh0tb68jAEsNmhyc930FRVAYhjQzEVKup3DJW7z5qfoNjbnbMaMzfq3zxlB/gtQwHpD8YMHRoJOLzQUF1k579rdWHX3bo/cubOPclt6n5YsDhvIdnNX1syfOyj0DF1iEy9es2FGXfWV79jmUBVza5o6/vEQmqVVDH/oiG8rLp5fSbe1vch089hXGXffQ1dSEqzJzu6sSkoM1paWESSGAU0oVLIau5zjtWx5kG5pdbbRqFHKuupHEOQzVnEnRhrbonlFXHPPquwF8zc9dG1syPh25MHSiJN1zs8snvP9tvzB/c68+H3pLyusiqdO/DnLp1lVTo/OT+VrVlVP+Unr3jmxaM0vQS+Wyduw3jVl4oRZD77odPt2U1cqysqSimpkS93080uNnz59VmFkJP+dniyCIB+/rKWLl99tJKHu29lQSb173ik9foxTX968AX1+zgnyf1Lzu9KlC7/L8fGsyG7poSueMWWW6loUw5hWfiLcPyWwTanyerS4oTZkb9zoHT961Mrbrf3Sr9hKqItWVlR0G//0J7Nmzcrav1/QUFkE+digW8K3oLx3zyp9yqQHhoICMcFmAUMoTGHYSKIIkcU9hpV1EoZjcRZzfpABAOR2DFyOczgDrE9FNq7YvT2o6u8/Z+gz0rvQ3Zv9wWgTsMJ07PiUmnUXzp+9Xp2Q0No+PMLvddqSu2snrsrMDFE8fjy0PDZumE5VCSwHxwyTZs23mvq0POI05tu0f+MaIMj7hALWW0qf+t36inNnxzGtrVMMxcVuUKkE3GAAGpMJdJG5jNnU7TTD0fEomZvbRxf/uBvTy/uc+uzfwwmbRnkmU6d/yenZ5+6LdepysvHcb0emcjt3XW8xdfq6uo5bU+6OHUJticxLnZfnr0xMbqutqJBqSkpsNeXlHL1aAwyJpMy6Z48lZq1abWjUtw8a24V8tFDAekuF237vUfLH7j3C0H5NDcXFfKpS6UtVVHTVpyYHkYX5tphaAwTfBHAGQ4/ptASoqoAV2O4Qd8iIEayOnbR11ak4erhXUdjiCMm23Y4cP7+MuvKkTPnOy1BVFaLOyemuKSryIHGaliGxvst189hPiC0UeUeObrEZMmR80ZWr3xRfj+6nV2vBIrjDAZvQvqMchwxG47mQjxJawO8tsRwdY8FgICmNWmizfEUCAKQAwAH571v4+qzMAKqocJQ25lZfTKclMAwDjMMGqrjIVXP14qSq06e2s7v1fGkV0vL9fyzitG596cVglb/mZzdNXn4P5d27I8rORboBh6NgOjieFgQGrmU6Ol6x/25KGZyMgFtdujwxbxf4p3TSxNMAcDp548YB6Xv2riw4d2GIuqzctujGza/E/m3QUAgE+dyUnj7NSejQLlO274+gutJlc75fmdXEgcpt0ZTKb+WpK2jmQhW42lOF7lKquGtwcumc6dOVB/ZWPxxXHD/aK9nOipJv3zoMACB/4XyHnFnfT03q0unOQ1dnKq6JM/Wka+fI9Nmz+mVvWPfSQ/XMrVsnXWrsoqtMT6/1sD7nZIT4Wt/+4Yc4fOqMX9v03Mhzzd7tlUAQ5D+v9O9TROIXwcmZ477t+2Ja0czpYZluzlTRyK8i81q4UfKpE7+vWLNyiLx/r/vFzZtQhW6OVL67E1XQpUNq6bLFI1VXLonyBvZ9kN7Ss7Jo6cIxmf37HE5o1tTw2MmOSmjnn50+fkxY4fbfPeprS9m9e3ZX3dwrkpf/+ENd6bl/nyZujR679pCZBXWiiUdxzumz3u/yWiAI8hFI7Nj+aWL7gOHG/y4/fpTIHz96T5rUlipd98vwij07h+V5NqYqtmx0AwDQPnrAUCyaN0TWKTA1301K5bo7UTmejamcIP/cjGZNqPSWnrrkps5UopsLldar25n8H5f1kh89wmqoDeUP4hj3evW6eaN161xlSkqDeZ/8snr4IQuJ7ngTj2L5o8eu7+YqIAjyUUj5sseDp34tRwIAKK9e5mf17h6Z1syVki1bPAYAoHho/8jCLsGZmrsxtZ4ZVu7dzSlb8sOcfP+W5TnNm1CZHi5URvOmVKpHYyp37KhdpYcPvHYwSZz5/cZzXC6Vtnr1pNfJH79uQ9Cxxm6Fx929MsueJjQ41gtB/ivQmu7vAKXTAdfHt6B400bXooU/PAAME1ms/MVd9MPi31UXz7to4mJDOD17b2H6+NZa94qUFTUz5GQ3B4okAHv2V0FptQAkBaRSKSSsrIte5/hJs2evyNn6+yS7iRN/sxszdvPrlHGb+t0Vv3WrW5hIHTOufT36ujIzC22QgSCfg6SQ4Jv5YUsWJrf2Kc0a0PdvbVoaz5hWunzJytxmLgbN/bu2xu/Uf0XYlY0atrHA05nKc3ei8lp5GrKaSqmCoQPOFIwbvS3VozGV6GBDpXX9IlF5LarBXlbWhg3DrootqLgBA67qKysZDeWtS8mDB6wzHTvfufXdtK3/tCyCIB+Z8osXGEmdOz552tSZyv9h7pYX0/O7dswsmTL+KACA6q8IfvnsaT/IAn0qCp0kVMnQ/n+Xr121MNeraVVuoG+x8q8/bQEA5L/9Oii1tU9pfCNLKimwTaYi6qpbXceWX7zofd3BXne7lc9TRVyc6E3PIeNEhFVklx43cyLPtX7TOhDkfUDjsN6SPj+fZZDJ7FjuHresl60YXzOt6vo1n5KZU0VM/8Al5Q7Sfsr1q1eSqclSws4hgzN+8gxG+w5/KH756SpZoWCZzpw7gtejVw4AgHDcpENlRw9nyX5dv7cqJUWav2jBqfKoqx1M27WvHjuluHdHmDxlygmGtXWB/dx53fleXvXuxPNkSRiOcdgijUxup8zKdMPZHKeKjCwHwpQvVKalc1J27VFQJFkku33XDQBu/WsXC0HeEhrp/pZkf+zxLlq14h5GkXqWc+MrZsO/niYI7f8YAKBo4pgIQ062MyEUJmmvXelNWFgq2T16rcAtLX/ljR6vKFv8wybFb79OMJn43QazBUunvFh32dHDktKTx3eVX7wYwmntf8v+1y0dmbY2qqq0VDz5u8mR+rIyD5fft7flublVzxPMOXCQU/4gzkVTUuKmr1Q115SWeVUVFrnqqqqsDHoDTjPlF9GFwgSWtdVDnMG8byKVJgBAVvN5swve42VDkDeCAtZbyg1b8n3Z/r0rMNJAYHo9MCwt5cIx4/vQbW21smmTb2I6LdCYDGAHtt/Mah+8gjtgcA4AQOWfER5lc6Y9Yvj6XRGu+fULmtC8zo0oVLH3iOJdO7bIDh0cbf7ViN8d1qwbm7NmzZzCA/u/tRozpjPO5ihU6Wk+6tw8n6q8PD9VXr6PpqREbDAYAJgsIITCJIZYfItlY3Od6yi9RReYJriMG1PnlCAE+a9DAestpfTrc5vXps16slRuqzxzZgEoynl0S7GCxuXJDakpDpyAgNPMZs0XCKbPjjWW0WdlckomfHuHVFZwzLfv8WM4u7zybWDu8rBZRfv2LhePHb+o+NjRiTRzUZJWLmepi4p89UolbiApwHkmwLCxiaVbWl5iWFhcZzVqFNdk9qyMf/UCIMh7hALWWyg5drRd4eqfIxx37nZiN3WTl+zZFVD22+ZTVKlcgBn0YDps+CrRorBam6bqUpOJ8pXL9mtu3ugn2nfEj9m8xUurNVTXv38fw1ChsCWr1La6Urm//K+/Fqnz81kYmw0UgwHAYstwU0EG065RLMvB8TLTxjbGftxYtIwM8slCD93fguyP3Sv5XboeYzd1k8u2bW1WfvzYcoOygo8BBUAagCLJl8a5lW9Yt019LWqAYNHyjnUFq4J5szkUSfroiov6lGz/vZu2uMhFX6kC0mAAmqWlnNey5RV6o0anGI0aXdJXKLOcV/ykej9niyAfHuphvaHiI4c75S1besZ53wHLinORPcoOHdhIoxMkKZcLRN9NnaY6d/YbQ1Ghg3jV2kacwHYKAAD5kh9mVR49vNJ8/ebunI5fnDbWVfLregFZUdFOm5rcU/P0abCuuFiqU1UCxhcAzVoSz3ByvsR0dY3E2ZwY6/ETXmswKYJ8ilDAegOaggI8ffzYO9zmzc4RPJP0svCji0w7ddpZeeXKGJOgDrutwn6cXX74YI+SpQtPiZYsa87vN/Ch8u9TvUsXzz/IGzCku9nMOZfKNqxl6LKzQ/RFBf21qSkhusJCK4NWCxhfAHgTV2C5e+zGDIa1NKH5Y6vpM9CiewgC6JbwjZSEHxupzcuV0i1EXpVpab0sp04fKN+9cxO7pc8lq7AfZwMAsLy8TtOdnOOBovhVN647l65cvoQbOqA7BZBTPG3ycmXE8b66nGxXUq8H3MxczfRqcZbZ1P0orUOwI/j4/cBgs2+aELSHH/pcEeS/BPWw/qHKR48kicOGPKFUlQLTgIDfxSO+mSbbtvU8BiC3Xhr2JcupcXVvSLZqxUKcyVCpb938EudwZWR5GUcb/ySEUpQDJhBo6W7u5xgezY7SRBZXhBMmZwEAqDTaYFVl5UUGQfzC55vM/HBniiD/PaiH9Q9lr1q5i6IoreXYcV/afj/rzwwe7yDguFz07dg+NYMVAIC+uFhRFXV5BVkqZ2E6HWBsNtA8mqmIjiHAdXf/0jSg3QU48sK+qhQpw0gKKIqSvM/zQpCPAQpY/0DG0iUL5af/dnXetMUdo9PlSYP6n9cVFoqsZ8xqxfPz0wMAyA/sk+jS0gZUXrk0qiLihAdOpwHD0SmO6hgioQcGKUy9mnfXEIwZeq1mq0qrnchhMM7WPIZBp1cABiQKWAjyMnRL+Jpytv42QXbixETp4iUdKu7e9Sq/cO5npkRy1mnzb7OL/9hjq7p9a4ChML+DLiM9hCwtZTAdHFNY7m5HaGxOJNZ3YLSmqfsZwqB3tTYztQcAUCorg/V6/Xgcx0kanb6ay2bFAADodDq+UqnMpCgoEArNmn7Ys0aQ/xYUsF5D8em/vTJ/+incKSysc/mlSwNKz0VOtBw2bCLD2jqm/OzZ8arr0dOpMjmHMBNqWY0b/8lu4b2NYdvokvnI0dXTbbJy8q/TcExoI7GqFYQqK1XDdTrdWBoNv0WnM5azWEx5SYk8E8dx4HA4jZlMBppGgyDPoYD1CsrEREF62NKjXJcm4arHj74wlJbamfr7b9GkpflV3bvzNSUvYTCaNC0wdO7G4HwREu3cquWXddWTm1/4gCIpha2NVeCLaSqVimMwGCaRJBWI49hRnU4/H8OAz+VyGzMYDOW/f5YI8nFAAasBhadPM/J27YwwlJY6kBUVPILD0TPF4iRV3P0QqKwEhoeHTN0hROQwcECoQWBml19QtNrZ3qaxKZtVa3pMeYWSKC0tz2bQ6Rck1uKv6jueWq3m6fWGmRqNZiGO4zkcDtudyWS+tA0Ygnyu0EP3esiuXsVztm/fU3bjZhe6CQ8wnQ70FAna7CwHhpX1BcmM4SvKO3YZVaHWDmGJLe4yMPxSgVazXF4kWw4Ag2vWhQMmNpAGMU5jJDZ0TJIkA0iS9MIwTAZAoeWrEeQF6EdRh+IrV/DcvXt3yS5eGoSzWEBWVQHGZOn57YKOWHw1PNA7+voX9D79EorKKvpxSUMcAZDHZjPLzM0EC4rlZYNKyxU9atan1mpcDHoSJ2hEnQNBVSqVbXm5Yo9Wq11Ep9PDaDQ8gaKAAQBohDuC1IB6WC/I3LuPyN69e1fJ2bPD6AQBoNcDu2nT06Zt/Be4LFpUvURMkVK1XK1UMhwbS9dzOWw9AICNtXhDZZV6YGZ2/v7SckVzM1N+BgCAwUD6UkABk0HE1zyWWqPhq6s0k5SVqlEsJvMkk8kay2Kx1KWlZXwATI9hOApYCILUTZWfL77Ro2fEGYEZddHdnTr7ZSgV88eBTS/mK1FU+Fy6FqO7de9RaoVSxauVVlImffA4MftJYuoTVZXaDgAgPTPnYmp6VqYxT7miQlQskw8qKCy+U1Qsu1xRoaxeS12hqMDl8tLE0tKybK1W+483lUCQTxnqYT2Xtm+/3e2+oXe0+QUimzFjVhUFBAdVsLi+ksYOF2vm0xkMxN37j7fo9HrCSiyaa8Lj1HqLZ24uSCtXKNtk5uZfTcvIvlNarhiYX1Dcjm/C3SAvLbNTq7UzS+Rlwxh0eoYpnzfZxIQXXbM8juMMAOBTFKXQaDR1rkKKIJ8r9AwLADKOHPVIXr3mMmFlfaPR9997Nlu1crbOXESQajWY0Ylab+ly8wqHl5QqfPgmJo+FZvyTddVnyuflSMSitgRBS8nJLYwgSZJQVWm6FMnkyVVqdT8uhz2fb8L1ezFYAQAwmAwWAPBwHC8yMTFBt4QIUsNnH7DS9x/skbprz35++6C1gSfC+7hNmhCflJXP0atUQqAoUOu01b1QZaVKmJqRuwQAwMbaIozP49Y7qJMkyTIOh73XQBr4BpIErVbrZmpiskhkbmZvKRZt5vNN6ixbpaoSkiTJwzAMbQqBIC/4rG8J437dPCEz7lEHq/ET+rj36lY9dopFo+kxwLQGkgSVSl29AWpGdv788gqlrYW54C6Pyzn2Yn15BcW4RqtrrdVq++fkFw0xGAxigqABnSDyAICv1mjaMhj0vwDgcX1twmk4n9RQQJJkvdt2Icjn6rPtYZ25EL2wwtXT02bcuKE1gxUAgJ2NWEuj0XIMBhJUVeo2AAAFxSXeaVm5kwgaDZwcbBcIBfzq27XktCy3R0+T5+UWFN3LzS+8XlxSOhXDMDnfhHfcYCDBXCiYZiUWtSVJklEkk9/OysnfUlRcYvtimwAAKJKyIikSCDqR++9eAQT5+HyWPazIK7c20ul0TmDblqPqyyM0M7lYXFIaXFKm6FSmqOA/eJK8UqPRMhztbP6QWFqcTUzNtFVrtJ2qqtShOXmFPQwkBQw6ATwu57SZqck2c6HpnzJ5+VYcx5U8Luccj8spA4DOJfLydooK5YyKisrLBUWybWwWc7cp36R62WOKouwokgLSQJa9l4uBIB+Rzy5gnb50Y2NZhdKtV6eALxrK52zf6EhWTuH8CqXK7nFC2iZ5mSKIwaBrSYrMu3oz9lRaRm43A2nACRoBPB47ztyEe5DFZJx0kdonAQCUlVdIimXyr0VCwb7nwQoAAMyFplEAEFUsK3HVaLSTy7Xa/QWFxbE4jp9iMumxep3BkaQowDAMBSwEecFnNZfw+p2HE5LTsyeGdusQaMLjyF+V/+rN2C3ZeUXj6AQNcBwHDAOg0WjAYjGLzPi8c0wG4zqDQX/MZNBvODs2qvVGLyk1c1uRTD7a1dmhjcjcrN7t3wuLSwRAUT4EQRMCgFCj0c6kKEpqwuN+weebXHgHp40gn4zPpoeVmZPv9ee56LU9vwho31Cwuv840VlVpQ4qLC7tk19U4ovjGJAUBSwGXWYlNl9Np9GimUxGrHsTab3ba8nLyl2fJKaN5LJZGRwuJ66hdllamJeVyEtjDAbDEJKk2hgMBgmO43rAsKy3OV8E+RR9FgGrqkqDHz9zZZsJj5Pl0Mi6Vm8nPikdr6xSexTK5N3KFcrBcU+Sm2EYBnwT7mMOm1VQrlCKMAxAq9NxhAKT2MaOdi+NnXpRfoFstlarw22sxBs5LKa6vnxFJXI3lVI1tlJV5cFhsyMYDGK9RqsdRMOwPAadjgIWgrzgswhY8clp/TLzCn38vNzmAwDcuPvISq3RBMjkiq53Hj4N0Gp0YgaTXmTK414QCU3DJJaiu+Zmpoqbdx9fZzLpebZW4iNpWblTHz5NPZGclhXaWGp3tr5jKSoq3e49fDqExWLKLEVmf9SVJ6+gqLVGo/1WUa704nLZ4TwuZ4kJjysvLVcM0+sNDBaT+ZDVQKBDkM/VZxGwElOzJ9JpNJCVljfdd/zsiYSUTGcaDVeymcw4oSl/EYfNiukY4FNraMOl63f3yssUru3atPiiidTuwtWb922zcvP7PYhPPnH/ceLQFh5Njtd1rLTMnAVqjYYhtZNs5nI51WOpCopKBIoKZW+tVjdWXlpux+VyjpsLBZ3NBPzqPBq15guSJAHHaTf/vauBIB+vTz5gPUpItb16874PjYYDBsCwFJntIQjibgf/ljn1lbn/KHHYzdjHw3xbuE1pIrW7AADQ2ttjKGCUNjuvaEhqRk547KOE2d6erqtqliuRl7e+8yB+AI/DKRAKBSsAADKy8nxVVVWjsvMK+tFwmt6Ey95uLjTdJDQT5NUsq1JVMYqK5QEYhgGDQYv6N64FgnzsPvmARdAIK51ezyFJCizMBYc7+Lesc/6fUW5BkfTvizd3uTjZ/e7TrOkG4/dMJl0LAENv3XuckZGTNy8xNWvl9TsPW0ksRVMc7SR5AAApGdnLDaQBNzPj78zNL+oUc//x5MzcghA2i5EmEgrCeFzObrFIWOdwBVWVxk2j00oZdHoeg85o8EE9gnyuPvmApdZo9BiGAUVRUKao7AMAdd7KAQCUKSqIs1duHxXwebc8XKQT68rTuqXH/MSUzDtpWbk/Z+cV9isrr/DNzMkfiOO47YMnycEEgUNRsXwqSZLz2Cxmmp2N5WAWi3ncWixqcDMJnV4frNcbgMflXGKzWWgddwSpwycfsOh0IoXDZmUp9JV2+UWyLiXycpG50LTOeXqXb9zfj2OYtkMb784WIrN6l3Zp4mx/EgBOxj1OmpCenbf+QXzKVYKG6wEooNPpWUIz/hY+j/cXnaAlNLKxeq0lYipVqsEAADwOZ88bnSiCfAY++aShOIkAACAASURBVLmEHk2kykYS8TGSJKFSVSW69yhhUV35MnLyg+Rl5f6dAny+tBCZ1TvGKj4pDY97nBhwMfru2qy8ghkGg4EwGAwMrU7H0RsMQJEk0Akig8VipLxusCotU7hWqTXeDDo9i8livHLYBIJ8rj75gAUA4O3ZZDXfhCfDMAweJaRNehCfPKBmukKh5FyPebj8i0DfwUIz06K66oh7nNTsyo3YsKcpmYmPE9OuFclKpuI4XmZtabEdAPQsJiPL1tpyLo7jBZk5BQefJqUX3nvwdGt6Vq7Xq9qnVmtCdDo9zuGwjrGYaDgDgtTns5mac/dBQt+o2/fDSYoCBkGovDxcvmzn53UBAODi9bvr1WqtqHtH/6E1y8TExYtLyyu6KZWqEQplZRCdoKlMeNxogSkvgsVkXPJr4ZEQE/dkbWpG7lR/H89Qe1vr4wAAT5PTvaqq1H0qKlW9SZKSMpmMFDaTcZbNZEayOaxYe1vrWosCJiSnX1arNUGOdjatTE1N7r6/q4IgH5fPJmABAFy4dmfW/SdJK3EMB4LAFZ3b+/XhcFjqKzfjNnUNau1nYS7QRt9+IKzSaELKKyoHKitVrQFAz+dxo+wbWe/HMbjVwqNJ9bSe3PyioMs37l2W2tvu8/fxrHO/wdSMHI8qtaZdlVoTSJKkA0Gj6el0WhZBJx5w2awoDMO1JfLS22wWK861sWOr93YxEOQj9FkFLACAk2ejtianZ4/BMAxYLIaKzWQUNXGyH6HV69Ul8vJRlSp1MxoNV5iacK9bmAvOYgBxrVt6vvSGr1JVxbp47c79SlWV8xftfRuLhGYZr3P8lLQsIY3AbbU6vZdOp++p1eqC9HqDyNbG8lvJs9tLBEHq8cm/JXxR7y7txt6KfZJ4K/bxcpVKzdHp9A5PUzI3mpny0iwtzLYSBG2Bf8tmdT7HqulJYtrcApnc1c/Lbf7rBqvs3EJcrdHYqjW6IJ1O35zHYV0kScoVABjmAtN6h1sgCPLMZxewAABae7uvuXXvUXRWbuHMvKKS3iWlZc1wDGOYmfL5HBar3jeERpk5+e0uXb+30EVqd8C1scNPDeV98CTZS6vT+ZIk6V4okzsAUGoGnUgQCQU/02h4WbG8bL2lyHwdk8l45XI3CPK5++xuCV90K/ZJ65z8wvmZuYU99Do9CAQmWTZi0SZbiXifl7tL3ov5S+Tl/DNXbiWbcFkp/j6egRbmwlrrYD1NTmfRaLh3SamiZ5Va3UWvJ+14HHa8UGBygiCIP50dG6UY8yalZq4oKSuf6tbYycaUz0UBC0Fe4bMPWEZRt+KCM3LyF8jkZUFanR5MuGylxNLiiKWF2UE6QUS18nLTAgBcuXFvU05B8YD2rVs0aSSxlAMAxD58alel0QVpNJquKrXGBwOMR6cTSQI+74yZqcmRxlK7tLqOeTcu/imfz7viIrUb/z7PFUE+VihgveBi9B0fVZWmf16hrJ9CWSnFAAOBKS/N1kq8hW/CSUlOz9nm5d64J2kgc5QqVUhlZVVHnd4gJQianE6n3zU14VwTmJrENXa0a3DXm2KZXJyWlXevZfOmHQgaLaWhvAiCPPPRBqxdO3fiNBpNOHzEiH9lO6zrdx6wNFqdb4Wy6kuZvKxXZVWVMwAAi8nQcjmcWL1e7yYSmkZz2ayDIqHgpIer0z+a/5eelTtGb6ACGzva1jkcAkGQl9UKWEsXL+bcvnWrb79+/W59M3r0S//qj/r6696tfH2zxk2YEPvdpEl96XR6m9Vr1858f8195szp0w4b16/fYWJiovL39x8xZfr0f/X5z417j4jKyiofrU7nr1Zr26jUah+d3mCFYxhOo9GUXDYrjcmgx/NNuPdxHE9gM+lpOI2W4+XuUu8D/PuPEy+aC0wWnDhyqOjSpUu+jRo1KhsybFjMvbt3pQwms2DsuHFoxVEEeUGtt4S52dnChKdP90ZHR58GgO41086cPu02ZtSoE1KpdA0AxFqKxUUcLjf5fTbW6Hp09ACJRPLwi5CQuQMHD1b/snLloFOnTuVdjY6OAgA4euSISFFezmgfFFTk3Ljxa83na4h/S089ANx6/oEH8SmEgTTYqlRqZ41W56GsVLXR6fVeeYXFPXAM5+E4DgSBy89dvZXD4bAf02m0p2w2K41BJzKAghw2i+lWLC/js5iMu23atmXl5eUVVFZWCgsLC7twORyJzmD4623bjCCfoloBy0CSeKNGjRKSk5KaXY+ObtY2IOChMe3CuXNjJRJJHkVRagCA+QsXRgNArYm6v2/Z4lCpUjFa+vhktWvfXj0gNJQ1cNAgkMvlom/Hjs0BANiwbp0IAET5+fnyFStXVo932rxpE1+r1UpMeDzZqG+/lQEArFq5ktBpNA5cExNy6rRpaQAA48aM4VUoFNZMJjM16upVxo/LlrGuRkWNzUhPPx/Qpk38/AULGI8fPepVKpcz7O3t75bK5bfMhLXf5L2t5m7OegDIeP65AADrAACib8dx+CZcUblCactmM+3KypV2QFJOpZUVbbR6fUcMAKcoUAJQjCZODkvEIjNt5NmzjOzsbIWpqWmRXq935ZuaJpWWlaHlZRCkDrUCFkVRBIvFkvn6+R38bfPmRQAQCgCQm5sr+jEsTNQ2IOCkTqfjAADMnjlz+J7duwMLiou/vX3rlse8OXM2xd6/H4dhGJjy+XcexMUdmz1z5t/nIiPTsrOz1at//nl2clLS8suXLjk0bdo0PvbePe+fV648M3P27A2bNm7s9deff05u0qRJrFan0wPA/IMHDgRt//33MC8vrxuZmZmckOBgr++mTRuxZ9cuh5SkpCDAcW9Pd3f9Y7lcm56WJjUzM+tK0GhEakrKbisrK61epyPKFQryXGQkBwDeSwAI8PNSAUDW88+NuvLEPkogMAwD8fPlazp36aIEgLsAAFt+/73eLewRBHkhYGEYBkqlktPYxWX79evXz0ScONHsyz59HoYfO9bXs3nzyML8fDu9Xm/xPDufThBiAIAtmzat79y5c+SsuXN/BABYumwZIyszkyeTyXzbtW+/Zev27ce6du06IDsnp8v3M2f6dQgOVvx58qRo/9694dHXru37bfPmb5q6ucWsXrt2vrEtx48dmzFk6NCto779dh8AwML581cfP3Zs/dHjx3vOnDHjBEZRWavWrNkNADBowIDujx8+PHMlOnr75O++k1Sp1UUWYjFwOByya7du/6neiren61vfoiLI5+ql5WVIkiRwGq0gpHPnkzdu3JgIAHD92rWh3t7el9RqNRvDqp/TkwwGQ7t50yZcqVQSnUJCfjMmWFhYaCtVKkIgEOT5BwTEAADExMR84eLicrJDcLACAKBX794yhUJREHX1qkdwx447oqOihk8cN27JyePHeVFXrhBMJlNrJZFUT1fxbN58V1pqqhQAQCAQgMTGprrtdDodlJWVOABA6IABeTiOX+JwOFFdu3WLefeXDEGQD+WlgIXjOJTK5ZzQfv22xD954v3rhg1jDHq91tfPL0en1zNq5qUAgMNmA41Gw7U6Xa3nRARBAI1G04pEIj3As96bTqutdTwTPh/UajVj5OjRf82ZN+/LtLS01rt37TpTpVbzMQwjSf3/OyOqykoCx3ESAMBAkkCS/z+cwWDA+Xx+9RdDhg1TDRk2rNYSLgiCfPxqBZDnQYDIz89nODduXNDK1zd61U8/be0TGroJAIA0GAiSJInneXGNWk18PXIkiWEY3LpxY4Kxnj8jIgQMBoPU6XQM6nlgCQgM/DsxMXHAtatXrQAALl644MDhcvm9+/SJ/fvvv0V9QkNjv+zdu2epXO6i1Wr5AADJyckjjXVGRUVNbOblFQMAYNDr6SRJVredNBjw9u3bC/6la4QgyH9ErYDF4/FIU4GgjMVkkgAAXbt129XK1zeqe69epwEAuDyeisvlKp/nVQsEAiUAwPiJEyefPH68f/u2bSPb+ftHlpSU9OVyuUo+n19G0OkkAMCYceNO+vn5Hfph3rwzQYGBJ1YsX360la/vNu+WLeXnzpyZEejvH7l7584zrfz8Tvbs1StjyLBhP/8ZETGqQ7t2p9q1bRtZVlpqNWv27JkAACwWq5LN4VSvzOnm7n707t27kwf267dl9syZtXqBCIJ8ou7ExOCXLl4UP42Prw5k92NjWcY/x967x3v08CEfAOBhXBzn7JkzQmParxs2sDoFBwf079PH505MDAEAEHX1qlit0dQKinNnz5b6+/q2O3zwoJXxu61btvAC27QJGDJwoHfNvDu3b+cEBQQEDB861Kfm9/FPnvASExM5Nb+bNnWqx6wZM5q93RVAEOSTcODAAcaJEyc+izXgEQT5b6p3LuGPP/4oTE5O7pWamtoxJyfHhUaj8QEAKisrFZaWlgk2NjbXO3fufHLy5MmvXOxu7ty5zXJzc4PT0tJa5ebmSk1MTHg6nQ40Go1SJBIlODk5XfP29j47c+bMl5ZzedHo0aNDiouLQwGAbNmy5Y6FCxe+kzXQw8PD8bNnz/ZOSEjoXFBQ4MrhcHgkSeIVFRUqOzu7lObNm18MDg7+q0+fPmgZGAT5L5k9e/YAiUSSDs9eBNb78fLymtRQPVu2bHHw8vI6zGQyda+qSygUlvTq1Wv1rl27hPXXCGBpabnQWOaLL74Y/jbnaXTixAkXHx+fi69q44wZM757F8dDEOQd2bp16zAajVb9I2WxWBonJ6f7wcHBZ5o2bXpbKBQWwv9/xPX+gHfs2NHbwsKiZl7KzMyssHnz5tdbtWp1KjAw8Iy9vf2TF4OZk5PT0y1btnjXV6+jo+MsY96ePXsOetvz/euvv5wdHByyjXXS6XTK0tIy0cvL65pUKr1namqaj+M4BQDUpEmTpr/t8RAEeUcuXLggMTMzK4XnP9527dqFT5s2zSMsLKz62dXSpUuFI0eODOncufNRsVg8uq56du7c2ZcgCIOxHmdn53uDBw8etGjRIlHNfD/99BMxadKkZt27d/+Zy+VWGvNbWFgU7t+/X1pX3e86YHXs2PGMsT4fH5/IsLAw3wkTJlS/aRw6dKhg0qRJwe3atYuYO3fuhPprQhDkvZo2bdoP8PzH2759+8uvyn/79u2XhhDcvn3bg8lkVsD/g8rBw4cPc14uXduhQ4e8JRJJqrFc375969yy/V0GrBUrVvgae5P29vbpJ0+eZDWU/8mTJ688DwRB3pPmzZtfh+fBYNOmTb3+afmHDx/igYGBl+H/t3dPLly4wH/d8tevX3cTCoWl8OzWzHD8+PHWL+Z5lwFr0KBBYca6BgwYsOVt6kIQ5N9Xa5hCTk6OLQAAjUYj1Wp1wj+t7MKFC12uXbsWBADAZDL1GzZs+KZTp06vPUWmbdu28RMnTlwCAKDT6fA9e/bM+Kdt+CcqKyurbzvd3d3vvat6Bw8ezGnSpIlg2bJl//ldibp27cobMGCAKDQ09K16j4cPH8aPHDmCAwD8feoUsWrlSsH16Oj//PkjH5da/0OJxWJ5SUmJncFgwDEMCwCApH9S2fHjx6cY/zxq1KhV3bt3/8eTj3v06PH7wYMHx6ekpLicP3++x5UrV6RBQUF1buLwtmg0WvUQheTkZD8AeOONTCdNmtQrLi6uj0wmcz1//ryksrKStW3bNllAQMDDFi1aRGzcuPHQi2W++eYbr9u3b08mSRI4HE5ybGzsTydOnHDZtGnT5NzcXDcul8tzdnYOd3d3P7Rp06blBoOBbNKkSdH27dvnuro2vOpDaGjovJiYmCYYhsGiRYvCRo0aVb2CbFhYWEBMTMxXycnJHjdv3nRQqVQcPp9f5uPjEy+RSK517Njx1ylTptRa5aJVq1bCwsLCFRqNhiUQCJRff/31NCsrK97p06dnx8fHt16yZInA2to6PuLkyfGlpaX+iQkJzZyk0hgAuPSm1xRBGjRv3rzqZ1gikaj4woULXq9bdufOnbbGB+dsNrvq9OnTDm/ajpEjR/5sbMe4ceO+rpn2Lm8JDx06FGSsy8TEpOLy5ctvNFK+Q4cOW2u+Wa3r06VLl21Pnz6t1aMNCgrqa0wXCoXXf/31VxepVJpfs5yFhcXB8PBwjqOjY/XLkCNHjtT7FhUAIDIyUspgMCgAoKRSaf6jR4+qb8uHDRu2hMFgVL8Qqevj5OR0+9SpU1Y162zUqJGd8RxNTEwq1q1bJ/X29r5Zs5ylpWXiwQMHXKZPndpj4rhxK8+fO1drhgKCvK1aP6ChQ4dutre3TwEAkMlkoiFDhpz55ZdfurxORSUlJW6VlZUcAABHR8cUGo32xmuSS6XSm8Y/Z2RkeL5pPa8yaNCgKyEhIccAACoqKniDBw8+s379+k7/pI758+fPu3z58hiDwQBMJlPdsmXLAx4eHlMCAgKm+fv7Vy91fPbs2dF79uxZVLMsjUbTG5frcXBwgEOHDm1NS0uzsrGxSQoNDV3n7+9/yMbGJi00NFQVHBy8z1guPj6+wX9ILl68OECr1QIAQIcOHTZ5enoqAAA2b948et++fQu1Wi1OEAQEBQX92bt374ldunQZ5evru5MgCBIAIDU11Xft2rX71Wp1dQ+cJEmSRqMpAQD4fL783LlzP8fGxrY2NTXNGzNmzKr+/ftvcHBwiObyeHJPT0/C2cXldmlpqaiO5iHIu3PixAkfCwuLYvj/uCTD8OHDV/7yyy8NTssJDAwcZyzTokWLiLdpw5w5c7zpdLpxaMXhmmnvelhDRESE0MvL646xTiaTqevbt2/Yb7/99spnOkeOHGlnHKPl6uqaHhYW9lKPYsyYMdW9VjabXXX27FlnY1qHDh16YRhGAQBlHAbSqVOnvdu2bavuEc2cORMHANizZ4+/8VgDBw7cVl+b4uPjCU9PzwcAQHE4nKqoqCgpAEBKSorEOC6Oy+VWzJo1q8eLZefMmdODx+NVDy/ZtWvXAGOahYWFLYPBqAAACsdxAwBQbdq0uTlnzhzbF+s5sH8/b+y339rt2LaN96priCBv7ciRI9729vaJUKO77+npGXnw4EGP+srMnDlzjjFv69atd7zN8Q8cOODA4/GqAIDq0KHD3zXT3nXAAgCIiIgQe3t7n4ca5yuVSh8sW7YspL4y8fHxeKtWra7Bs2CjO3jwYLv68nbo0KF6FP3o0aN/MH7fvn376oAFAFTLli3vFRUV1bnaRGJiIuHu7v4IACg7O7vMBw8e1BkMtmzZ4msMbO3btz9h/H7ChAlrjcf55Zdf6h3wO2HChOo3p+3bt480fi8Wi6sDFjy7hS25f/++XX31IMh79ccff4g7duy4F2r8iE1NTStGjRr1fV35586dW92T6Nmz56a3OfbVq1clpqamFQBABQQEnKmZ9m8ELACAPXv2cDp27HgYapwvQRBU//79t1y+fPmloRmRkZHexsDg7+9/5sX0mrZu3drPWKevr+954/c1AxaGYdTOnTt7N1TP5MmTq6/x3r1767xVnz9//oQaeXoAAJw6dYpvZWWVD8/Gm2UmJSXV23s8c+aMg7GXZW5uXvjXX38JAF4OWF999dWKhtqKIP+Gem/zhg8fXnTx4sWvFi9e3F8qlSYBAJSXl/N27Njxc9u2bY+eOXOm1r/wRUVFWuOfi4uLGxyA+SpyuZwwLtDH5XLVr8r/LowYMUJ18eLFgXPmzBlqb2+fBgCg1+vh6NGj42bMmHGmoKCg1vleunQp2Ljq6fPAXi8HB4cLfD5fCQCQm5trO2nSJALg2aqsRubm5jIMw640VM/AgQOPMZlMLQDAxYsXQ+vKExcX1xEAwNHRMa1ly5YXAAAuX77sXVBQYAUA0KZNmz9dXOrfL7Fr164Zzs7ODwEAqqqqhJmZmWKAZyvRGtFoNPDz8zvVUFsR5N/wynEyixcvPnbw4MELmzZt2nL79u1BOp0Orl+/3m/RokWC06dP9+/WrVsZAEBBQUH1qg0KhcKq/hpf7c6dOyK1Ws0CAMjMzHyvm0j89NNPB3bs2HH29OnTS86dOzeyoqKCExsb6//VV1+F5+TkDLS1tS0DADh//ry7sUxUVNTQvn37djQYDDhFUdV1YRgGFEWRGzduJAwGAwAAlJeXs65cucIAAH3NICAWi3O++eabsobaFhAQkNC2bdsr169fD4mMjOxx9+5dgY+PT3WZK1eu2PXs2bMTAMCXX365y83NTQ0AcOnSJRdjnpiYmABfX9+DGIa99HdPURRJo9HI9PR0O4BnS0/HxMSwAJ4FKSMGg6HOz88veK0LiiAfyuLFi/sRBFEFz28LunfvftSYtnr1ah/ja287O7v0AwcOvHEva9myZV8bjzFixIiFNdP+rVvCuuzevdvL1ta2erpQaGho9fmyWKxwqHH7+LofDMOKnZycOAAAISEh1beEpqamN+E1LFu2rIexrmnTpo2pmTZ9+vTl8Pz50sOHD8XG7/38/L57k7YCADVgwAAvAABbW9vqW0ITE5PSrl27Sl6nvQjyLv2jkciLFy8+tnTpUsGiRYu2URQFFy5c6L1jxw7XUaNGJfj6+iaJxeKC/Px8q9zcXDuDweAFz3dK/qdu3LjR2fjnwMDAG3v21Dmt8F/39ddfx23dujV05syZ1xQKBS8iIqJveHi4a2hoaAKXy9Wr1WogCIIcPHjwb6ampvLnA27rrY+iKGAymSVWVlbaOXPmgE6nq5X2Ovz8/C5IpdK0tLQ0aUxMzFAA+B3g2TzHbt26DQEA6N69+8lmzZpV93jLysqqN+gYNWrUbw4ODpnaFzYEqaOtOEEQpK+vb96RI0fAOEwC4NlMCCsrq3e6OS2C/Gs8PDwewPN/gefPn9/P+H23bt2qex0DBw5s8LlOfeLj4yUCgaAUAKjGjRs/ja2xRDPA++1hGQ0dOnSL8Zhz584dBAAQEhKyBZ694qd27Njh3GAF9QgKCqruYYlEomuvW65Xr1574dkQDM2BAwfcAAC2b9/eAwAoGo1GHTlyxL9m/vbt2w8ztv/HH3/s9iZtrfnQ3czMrHjChAniVxZCkHfsjZY8lkql1TsUs1is6oDSr1+/6iB17NixQfv27Qv6p3WvW7dubllZmeB5feu9vb3fy0P3hpSXl1fPMzQOJ/D3908GeLbTUHFxcfCb1FvzoXtDPbMXeXt7XwUA0Gg0jHv37vUDADh8+PAIAAB3d/fYVq1a1erZDhw4sHpqU3R09NA3aSubza7V1hp/7Qjy3rxRwMrPz68ef6NQKKof+g4ePPivFi1a3AIAMBgMxOzZs3dt3br1tR/Ar1q1qt/27dsnAAC4uLgk9OzZ84+G8td8EPxvEovF1c9rfHx85AAArVq1ijYGmd27d4+9ffv2W613T6fTX3tH6ObNm/8lEAjKAADOnTv3ZVRUlMOdO3dCAACaNWt2y9HRsdbtmqur62Nra+s8AIBr1671ioyMrHOtsYa8GFBf9xYWQf41I0eOnL5+/fp6B4cCAOzdu7eLcZVQPp9fGR4eXmuk86VLl3xYLFb1g/nmzZtHHj9+/JVTNKZOnToawzCNsdzGjRvrXP7YeEuIYRjVuXPnf7wETk1Lly4dsGbNmgZ7R4cOHRI6OjqmwrOR45odO3ZIAQASExPxVq1aVS/HM2vWrB8aqgcAYMOGDa43b96sHhgaHBxcfUsokUheuf5YTYMHD94LABSLxaoKCQk5ZWzH/v376xyfNXHixJXGPO3atTtz+fLlBp9f7tixw3X79u3Vy1U3atSo+pZQKBQWT5s2Dd0SIh+WQCAo5PF4VR07dtwzZcqUkIULF1b/DztlyhTRt99+O8bU1LR6Eu7XX3+9sa56fv/992E1Vxy1t7dPHj169LiwsDCHcePGMczNzfEJEyYwNmzY4DBu3LjhXl5e1WtoAQDVokWLE0lJSXWO+DYGLBzHKR6P9zcA/AwAq+v72NjYzJk8eXKdP85evXodxDCMCggIODVv3rxes2fPrh4gOnXqVMYPP/zQrkmTJreN7RoyZEitEfzHjh1rzWKxdPA8gA4aNGjF3r17a/2QV61axZs7d25I69atw5s0aZIYHh5ePWjzbQLWr7/+GlzzmgEA5eLikhgbG1vndbt69arQyckp2Zg3MDDw7zVr1tSa7L1w4ULO2LFj23Xt2nWbWCyu+P7776vnLNrZ2aGAhfy3mJqaVq/BjmEYJRaL862tre9LJJI7ZmZmtVYR6Nat25Z79+7VO1ds8+bNwa1ataq1sQOfz6+wtLRMZLFYDywtLRONo9mNH6FQWD5ixIh5T58+rfcBib29/RyA+l/Dv/ixtrYunjRpUp31de/evdbIdrFYnOnk5HTT3d39qkQieUoQRHVaaGjonpSUlJd2l962bVu3mtfG0tIy39nZ+YxQKAx3dXX929bWNtOY5uDgkB0REVEdUIKCgnoZ06ysrF77oTsAwP3794mWLVvWWi3hhx9+aHAJ5+PHj3s7OztXvzBhMpkaV1fXm1ZWVhEODg6R1tbW6cY0HMepJUuWuBrL2tjY2NFotCp4NgSjdMqUKShgIR9Wjx49wiQSSaJx4vGLH4IgKGdn59uLFi3q12BFNUyYMGGci4vL/frqpNFoBqFQmBoQELB29erVLg1WBgBNmzadzmazNRwOp+pVHzabXeXk5PRo+vTpdfY6li9fPszBweEBk8msd7kViUSSO3jw4HkNtWnDhg0uXbp02c/hcKrqqkMgEJS0adMmfOLEibVuP7t169aNy+Vq2Gy2RiqVRtZRdYOWLl06jMPhVLFYLI1UKk29efPmSwH1Rfv37+eFhoYutLS0zK2rrSYmJhVubm5nJk+e3K/mEtiurq4SkUiUy+fzK+zt7dPnzJmDVmJA3ruXXk1NnDiRxWKx3NRqtXdUVFRTiUTCLy4u1tvY2CRbWFjccHBwiFm4cOE/GoOzceNGIiMjwys/P98nJyen1aNHj3oZlx5xdXWNCwsLC+zfv/9rjWgfMWKEoKCgQIRh2CvbYDAYaZYUVQAAAYpJREFUcHNzc+2hQ4fqXepmxYoVeHJysptMJvOVyWQthUKhwGAw6LVabZ6tre2djh07Rg0fPlz2Om2bOnWqS3l5eVB0dLQ7k8lk0Gi0Mk9Pz9u2tra3fvrpp5dGhs+ZM4cTFxcnMRgMYGFhoTpw4MAr92Ws6fz588SaNWsc1Go1uLm5KTdt2vTao88XL14szM3NbZeent7i/v37whYtWsgtLS3vW1hYxK5bt+6l67Vw4UK8vLxcotVqcR6Pp2/Tpk1B37590Vgs5NO3cuVKZycnp3vw7NbD8P3336/80G1CEASp1+bNmyXW1tbVz3dmz56NZv8jCPLftX///lrrQfXu3Xvhq8ogCIJ8MCNHjqz11m/BggXLP3CTEARB6jd8+PD1bDY7n8lkFtJotJJBgwaNO3To0FuNHEcQBEEQBEEQBEEQBEEQBEEQBEEQBEEQBEEQBEEQBEEQBEEQBEEQBEEQBEEQBEEQBEEQBEEQBEEQBEEQBEEQBEEQBEEQBEEQBEEQBEEQBEGQN/c/s9b3nuJykVAAAAAASUVORK5CYII=;" parent="1" vertex="1">
          <mxGeometry x="247" y="75.5" width="135.45" height="74.5" as="geometry" />
        </mxCell>
      </root>
    </mxGraphModel>
  </diagram>
  <diagram id="TKlJvIGz8X-hBzrEDQ2C" name="Page-2">
    <mxGraphModel grid="0" page="1" gridSize="10" guides="1" tooltips="1" connect="1" arrows="1" fold="1" pageScale="1" pageWidth="1200" pageHeight="1600" math="0" shadow="0">
      <root>
        <mxCell id="0" />
        <mxCell id="1" parent="0" />
      </root>
    </mxGraphModel>
  </diagram>
</mxfile>
